<?xml version="1.0" encoding="utf-8"?>
<!-- Generator: Adobe Illustrator 14.0.0, SVG Export Plug-In  -->
<!DOCTYPE svg PUBLIC "-//W3C//DTD SVG 1.1//EN" "http://www.w3.org/Graphics/SVG/1.1/DTD/svg11.dtd" [
	<!ENTITY ns_flows "http://ns.adobe.com/Flows/1.0/">
]>
<svg version="1.1"
	 xmlns="http://www.w3.org/2000/svg" xmlns:xlink="http://www.w3.org/1999/xlink" xmlns:a="http://ns.adobe.com/AdobeSVGViewerExtensions/3.0/"
	 x="0px" y="0px" width="36px" height="45px" viewBox="0 -0.86 36 45" enable-background="new 0 -0.86 36 45" xml:space="preserve">
<defs>
</defs>
<path fill="#e8177a" fill-rule="evenodd" clip-rule="evenodd" d="M7.135,29.007c-5.858-5.989-5.858-15.7,0-21.69c5.858-5.99,15.355-5.99,21.214,0
	c5.857,5.99,5.857,15.701,0,21.69C22.49,34.998,12.993,34.998,7.135,29.007z M30.729,5.386c-7.03-7.182-18.427-7.182-25.457,0
	c-7.029,7.181-7.029,18.824,0,26.006l0.017,0.016L18,44.14l12.71-12.732l0.019-0.016C37.757,24.21,37.757,12.567,30.729,5.386z
	 M19.069,10.504c0.065-1.076-0.413-1.697-1.405-1.843c-1.007,0.11-1.502,0.639-1.502,1.624c0,1.059,0.462,1.588,1.403,1.605
	C18.523,11.891,19.02,11.417,19.069,10.504z M20.044,26.727c0.61,0,0.908-0.237,0.875-0.711c-0.05-0.438-0.347-0.676-0.875-0.676
	c-0.546-0.036-0.843-0.383-0.876-1.022l0.033-7.682c0.033-0.675-0.165-1.077-0.611-1.187c-0.463-0.109-1.09,0.037-1.883,0.402
	c-0.81,0.383-1.206,0.729-1.206,1.039c0,0.329,0.115,0.512,0.363,0.584c0.231,0.073,0.38,0.438,0.429,1.077v5.985
	c-0.049,0.584-0.313,0.876-0.792,0.876c-0.463-0.037-0.71,0.164-0.743,0.603c0.033,0.474,0.28,0.711,0.743,0.729L20.044,26.727z"/>
</svg>
